<svg width="23" height="23" viewBox="0 0 23 23" fill="none" xmlns="http://www.w3.org/2000/svg">
<g clip-path="url(#clip0_3_49)">
<path d="M19.854 12.5158C20.1232 12.2463 20.2744 11.8809 20.2744 11.5C20.2744 11.119 20.1232 10.7537 19.854 10.4841L14.4337 5.06094C14.164 4.79127 13.7983 4.63977 13.4169 4.63977C13.0355 4.63977 12.6698 4.79127 12.4001 5.06094C12.1304 5.33061 11.9789 5.69636 11.9789 6.07773C11.9789 6.4591 12.1304 6.82485 12.4001 7.09452L15.3671 10.0625L4.31272 10.0625C3.93147 10.0625 3.56584 10.2139 3.29626 10.4835C3.02667 10.7531 2.87522 11.1187 2.87522 11.5C2.87522 11.8812 3.02667 12.2469 3.29626 12.5164C3.56584 12.786 3.93147 12.9375 4.31272 12.9375L15.3671 12.9375L12.4001 15.9045C12.2666 16.038 12.1607 16.1965 12.0884 16.371C12.0161 16.5455 11.9789 16.7324 11.9789 16.9213C11.9789 17.1101 12.0161 17.2971 12.0884 17.4716C12.1607 17.646 12.2666 17.8045 12.4001 17.9381C12.5336 18.0716 12.6921 18.1775 12.8666 18.2498C13.0411 18.322 13.2281 18.3592 13.4169 18.3592C13.6057 18.3592 13.7927 18.322 13.9672 18.2498C14.1416 18.1775 14.3002 18.0716 14.4337 17.9381L19.854 12.5158Z" fill="black"/>
</g>
<defs>
<clipPath id="clip0_3_49">
<rect width="23" height="23" fill="white" transform="matrix(0 1 -1 0 23 0)"/>
</clipPath>
</defs>
</svg>
